# xmcd
#
# Track frame offsets: 
#        150
#        16510
#        28467
#        39440
#        53017
#        64989
#        75107
#        88989
#        100330
#        113642
#        127177
#        140126
#        152424
#        163958
#        175172
#        187864
#        199867
#        211820
#
# Disc length: 3052 seconds
#
# Revision: 0
# Processed by: cddbd v1.5.1PL0 Copyright (c) Steve Scherf et al.
# Submitted via: ExactAudioCopy v0.95a4
#
DISCID=f00bea12
DTITLE=Various Artist - Country, At It's Best
DYEAR=2002
DGENRE=Country
TTITLE0=Bobby Bare - Me and Bobby McGee
TTITLE1=Dava Dudley - Six Days on the Road
TTITLE2=Ferlin Husky - The Wings of a Dove
TTITLE3=Freddy Quinn - Green green Grass of Home
TTITLE4=George Kent - Hitting the Bottle, missing you
TTITLE5=Bobby Bare - Help me make it through the Night
TTITLE6=Dave Dudley - I was Country before Barbara Mandrell
TTITLE7=Bobby Bare - That's how i got to Memphis
TTITLE8=George Kent - Mama bake a Pie, Daddy kill a Chicken
TTITLE9=Freddy Quinn - Oh, Lonesome me
TTITLE10=Dave Dudley - Me and Ole C.B.
TTITLE11=Bobby Bare - Roses are red my Love
TTITLE12=Dave Dudley - Sentimental Journey
TTITLE13=Freddy Quinn - Some broken Heards never mend
TTITLE14=Bobby Bare - The Year that Clayton Delaney died
TTITLE15=Freddy Quinn - Old Smoky
TTITLE16=Dave Dudley - The most beautiful Girl
TTITLE17=Bobby Bare - Sylvia's Mother
EXTD=
EXTT0=
EXTT1=
EXTT2=
EXTT3=
EXTT4=
EXTT5=
EXTT6=
EXTT7=
EXTT8=
EXTT9=
EXTT10=
EXTT11=
EXTT12=
EXTT13=
EXTT14=
EXTT15=
EXTT16=
EXTT17=
PLAYORDER=
